<svg width="65" height="36" viewBox="0 0 65 36" fill="none" xmlns="http://www.w3.org/2000/svg">
<path d="M19.6562 17.3438C20.1146 17.3438 20.5104 17.5104 20.8438 17.8438C21.1771 18.1562 21.3438 18.5417 21.3438 19C21.3438 19.4583 21.1771 19.8542 20.8438 20.1875C20.5104 20.5 20.1146 20.6562 19.6562 20.6562H18.6562V23.3438C18.6562 23.6979 18.5208 24.0104 18.25 24.2812C18 24.5312 17.6979 24.6562 17.3438 24.6562H14.8125V23.6562C14.8125 23.1562 14.6354 22.7396 14.2812 22.4062C13.9271 22.0521 13.5 21.875 13 21.875C12.5 21.875 12.0729 22.0521 11.7188 22.4062C11.3646 22.7396 11.1875 23.1562 11.1875 23.6562V24.6562H8.65625C8.30208 24.6562 7.98958 24.5312 7.71875 24.2812C7.46875 24.0104 7.34375 23.6979 7.34375 23.3438V20.8125H8.34375C8.84375 20.8125 9.26042 20.6354 9.59375 20.2812C9.94792 19.9271 10.125 19.5 10.125 19C10.125 18.5 9.94792 18.0729 9.59375 17.7188C9.26042 17.3646 8.84375 17.1875 8.34375 17.1875H7.34375V14.6562C7.34375 14.3021 7.46875 14 7.71875 13.75C7.98958 13.4792 8.30208 13.3438 8.65625 13.3438H11.3438V12.3438C11.3438 11.8854 11.5 11.4896 11.8125 11.1562C12.1458 10.8229 12.5417 10.6562 13 10.6562C13.4583 10.6562 13.8438 10.8229 14.1562 11.1562C14.4896 11.4896 14.6562 11.8854 14.6562 12.3438V13.3438H17.3438C17.6979 13.3438 18 13.4792 18.25 13.75C18.5208 14 18.6562 14.3021 18.6562 14.6562V17.3438H19.6562Z" fill="black"/>
<path d="M27.8887 22L31.0703 13.4277H32.9219L36.1504 22H34.2754L32.125 15.9297C32.0742 15.793 32.0332 15.6621 32.002 15.5371C31.9707 15.4121 31.9414 15.2852 31.9141 15.1562H31.8613C31.8379 15.2852 31.8086 15.4141 31.7734 15.543C31.7422 15.668 31.7031 15.7969 31.6562 15.9297L29.5 22H27.8887ZM29.5938 20.0723L30.0156 18.7891H33.877L34.3047 20.0781L29.5938 20.0723ZM36.8359 24.4375V15.7246H38.418L38.459 16.4512H38.4883C38.625 16.209 38.8574 16.0078 39.1855 15.8477C39.5137 15.6875 39.8828 15.6074 40.293 15.6074C41.1133 15.6074 41.7734 15.8984 42.2734 16.4805C42.7773 17.0586 43.0293 17.8203 43.0293 18.7656V18.9531C43.0293 19.8984 42.7812 20.6621 42.2852 21.2441C41.7891 21.8262 41.1367 22.1172 40.3281 22.1172C39.9219 22.1172 39.5586 22.0508 39.2383 21.918C38.9219 21.7812 38.6836 21.5938 38.5234 21.3555V24.4375H36.8359ZM38.5234 19.9375C38.625 20.1797 38.7949 20.3926 39.0332 20.5762C39.2754 20.7598 39.5625 20.8516 39.8945 20.8516C40.3711 20.8516 40.7227 20.6855 40.9492 20.3535C41.1797 20.0215 41.2949 19.5762 41.2949 19.0176V18.7012C41.2949 18.1465 41.1797 17.7031 40.9492 17.3711C40.7227 17.0391 40.3691 16.873 39.8887 16.873C39.5488 16.873 39.2617 16.9629 39.0273 17.1426C38.7969 17.3223 38.6289 17.5312 38.5234 17.7695V19.9375ZM44.2773 24.4375V15.7246H45.8594L45.9004 16.4512H45.9297C46.0664 16.209 46.2988 16.0078 46.627 15.8477C46.9551 15.6875 47.3242 15.6074 47.7344 15.6074C48.5547 15.6074 49.2148 15.8984 49.7148 16.4805C50.2188 17.0586 50.4707 17.8203 50.4707 18.7656V18.9531C50.4707 19.8984 50.2227 20.6621 49.7266 21.2441C49.2305 21.8262 48.5781 22.1172 47.7695 22.1172C47.3633 22.1172 47 22.0508 46.6797 21.918C46.3633 21.7812 46.125 21.5938 45.9648 21.3555V24.4375H44.2773ZM45.9648 19.9375C46.0664 20.1797 46.2363 20.3926 46.4746 20.5762C46.7168 20.7598 47.0039 20.8516 47.3359 20.8516C47.8125 20.8516 48.1641 20.6855 48.3906 20.3535C48.6211 20.0215 48.7363 19.5762 48.7363 19.0176V18.7012C48.7363 18.1465 48.6211 17.7031 48.3906 17.3711C48.1641 17.0391 47.8105 16.873 47.3301 16.873C46.9902 16.873 46.7031 16.9629 46.4688 17.1426C46.2383 17.3223 46.0703 17.5312 45.9648 17.7695V19.9375ZM51.3262 20.043H52.9961V20.1309C52.9961 20.4355 53.1035 20.6602 53.3184 20.8047C53.5332 20.9492 53.8223 21.0215 54.1855 21.0215C54.5605 21.0215 54.8418 20.9551 55.0293 20.8223C55.2207 20.6855 55.3164 20.502 55.3164 20.2715C55.3164 20.041 55.2246 19.8711 55.041 19.7617C54.8574 19.6484 54.4043 19.5215 53.6816 19.3809C52.9316 19.2363 52.3809 19.0078 52.0293 18.6953C51.6777 18.3789 51.502 17.9688 51.502 17.4648C51.502 16.8867 51.7422 16.4219 52.2227 16.0703C52.7031 15.7188 53.3535 15.543 54.1738 15.543C54.9902 15.543 55.6426 15.7246 56.1309 16.0879C56.623 16.4512 56.8691 16.9375 56.8691 17.5469V17.6172H55.2051V17.5352C55.2051 17.2773 55.1191 17.0742 54.9473 16.9258C54.7793 16.7773 54.5195 16.7031 54.168 16.7031C53.8164 16.7031 53.5605 16.7637 53.4004 16.8848C53.2441 17.0059 53.166 17.1621 53.166 17.3535C53.166 17.5488 53.2578 17.7051 53.4414 17.8223C53.625 17.9395 54.0879 18.0684 54.8301 18.209C55.5762 18.3535 56.123 18.5801 56.4707 18.8887C56.8223 19.1973 56.998 19.6191 56.998 20.1543C56.998 20.7715 56.7598 21.2637 56.2832 21.6309C55.8105 21.9941 55.1133 22.1758 54.1914 22.1758C53.2734 22.1758 52.5664 21.9941 52.0703 21.6309C51.5742 21.2637 51.3262 20.7559 51.3262 20.1074V20.043Z" fill="black"/>
</svg>
