<svg width="56" height="56" viewBox="0 0 56 56" fill="none" xmlns="http://www.w3.org/2000/svg">
<path fill-rule="evenodd" clip-rule="evenodd" d="M11.6667 9.33329C10.3781 9.33329 9.33342 10.378 9.33342 11.6666V44.3333C9.33342 45.622 10.3781 46.6666 11.6667 46.6666H44.3334C45.6221 46.6666 46.6668 45.622 46.6668 44.3333V11.6666C46.6668 10.378 45.6221 9.33329 44.3334 9.33329H11.6667ZM4.66675 11.6666C4.66675 7.80063 7.80076 4.66663 11.6667 4.66663H44.3334C48.1994 4.66663 51.3334 7.80063 51.3334 11.6666V44.3333C51.3334 48.1993 48.1994 51.3333 44.3334 51.3333H11.6667C7.80076 51.3333 4.66675 48.1993 4.66675 44.3333V11.6666Z" fill="#8A9BA8"/>
<path fill-rule="evenodd" clip-rule="evenodd" d="M19.8333 18.6667C19.189 18.6667 18.6667 19.189 18.6667 19.8333C18.6667 20.4777 19.189 21 19.8333 21C20.4777 21 21 20.4777 21 19.8333C21 19.189 20.4777 18.6667 19.8333 18.6667ZM14 19.8333C14 16.6117 16.6117 14 19.8333 14C23.055 14 25.6667 16.6117 25.6667 19.8333C25.6667 23.055 23.055 25.6667 19.8333 25.6667C16.6117 25.6667 14 23.055 14 19.8333Z" fill="#8A9BA8"/>
<path fill-rule="evenodd" clip-rule="evenodd" d="M35.6833 21.6834C36.5946 20.7722 38.0719 20.7722 38.9832 21.6834L50.6498 33.3501C51.5611 34.2613 51.5611 35.7387 50.6498 36.6499C49.7386 37.5611 48.2612 37.5611 47.35 36.6499L37.3333 26.6332L13.3165 50.6499C12.4053 51.5611 10.9279 51.5611 10.0167 50.6499C9.10545 49.7387 9.10545 48.2613 10.0167 47.3501L35.6833 21.6834Z" fill="#8A9BA8"/>
</svg>
