<svg width="20" height="20" viewBox="0 0 20 20" fill="none" xmlns="http://www.w3.org/2000/svg">
<path d="M13.2399 10C13.2399 8.20002 11.7999 6.76002 9.9999 6.76002C8.1999 6.76002 6.7599 8.20002 6.7599 10C6.7599 11.8 8.1999 13.24 9.9999 13.24C11.7999 13.24 13.2399 11.8 13.2399 10ZM14.9199 10C14.9199 12.76 12.7599 14.92 9.9999 14.92C7.2399 14.92 5.0799 12.76 5.0799 10C5.0799 7.24002 7.2399 5.08002 9.9999 5.08002C12.7599 5.08002 14.9199 7.24002 14.9199 10ZM16.2399 4.84002C16.2399 5.56002 15.7599 6.04002 15.0399 6.04002C14.3199 6.04002 13.8399 5.56002 13.8399 4.84002C13.8399 4.12002 14.3199 3.64002 15.0399 3.64002C15.7599 3.64002 16.2399 4.24002 16.2399 4.84002ZM9.9999 2.08002C8.5599 2.08002 5.5599 1.96002 4.3599 2.44002C3.5199 2.80002 2.7999 3.52002 2.5599 4.36002C2.0799 5.56002 2.1999 8.56002 2.1999 10C2.1999 11.44 2.0799 14.44 2.5599 15.64C2.7999 16.48 3.5199 17.2 4.3599 17.44C5.5599 17.92 8.6799 17.8 9.9999 17.8C11.3199 17.8 14.4399 17.92 15.6399 17.44C16.4799 17.08 17.0799 16.48 17.4399 15.64C17.9199 14.32 17.7999 11.32 17.7999 10C17.7999 8.68002 17.9199 5.56002 17.4399 4.36002C17.1999 3.52002 16.4799 2.80002 15.6399 2.56002C14.4399 1.96002 11.4399 2.08002 9.9999 2.08002ZM19.5999 10V13.96C19.5999 15.4 19.1199 16.84 18.0399 18.04C16.9599 19.12 15.5199 19.6 13.9599 19.6H6.0399C4.5999 19.6 3.1599 19.12 1.9599 18.04C0.999902 16.96 0.399902 15.52 0.399902 13.96V10V6.04002C0.399902 4.48002 0.999902 3.04002 1.9599 1.96002C3.1599 1.00002 4.5999 0.400024 6.0399 0.400024H13.9599C15.3999 0.400024 16.8399 0.880024 18.0399 1.96002C18.9999 3.04002 19.5999 4.48002 19.5999 6.04002V10Z" fill="white"/>
</svg>
