<svg width="868" height="862" viewBox="0 0 868 862" fill="none" xmlns="http://www.w3.org/2000/svg">
<circle cx="445.516" cy="430.896" r="410" transform="rotate(-3 445.516 430.896)" stroke="black" stroke-width="4" stroke-linecap="round" stroke-linejoin="round"/>
<circle cx="445.516" cy="465.896" r="305" transform="rotate(75 445.516 465.896)" stroke="black" stroke-width="4" stroke-linecap="round" stroke-linejoin="round"/>
<circle cx="233.016" cy="78.3958" r="13.5" fill="black"/>
<circle cx="446.016" cy="162.396" r="13.5" fill="black"/>
<circle cx="355.016" cy="757.396" r="13.5" fill="black"/>
<path d="M30.4053 789.896C42.1459 789.896 53.8864 789.896 65.6269 789.896C68.7048 789.896 71.6535 788.746 71.5112 787.396C71.3684 786.041 68.9257 784.896 65.6269 784.896C53.8864 784.896 42.1459 784.896 30.4053 784.896C27.3274 784.896 24.3787 786.046 24.5211 787.396C24.6639 788.75 27.1065 789.896 30.4053 789.896Z" fill="#01010C"/>
<path d="M6.22964 798.896H114.803C122.414 798.896 122.427 793.896 114.803 793.896H6.22964C-1.38209 793.896 -1.3947 798.896 6.22964 798.896Z" fill="#01010C"/>
<path d="M293.221 293.896H418.811C426.411 293.896 426.424 288.896 418.811 288.896H293.221C285.621 288.896 285.608 293.896 293.221 293.896Z" fill="#01010C"/>
<path d="M310.242 301.896H404.79C412.419 301.896 412.431 296.896 404.79 296.896H310.242C302.614 296.896 302.601 301.896 310.242 301.896Z" fill="#01010C"/>
<path d="M183.468 524.972C176.405 529.883 175.325 539.806 179.706 546.787C184.173 553.904 193.018 557.337 201.262 556.124C205.509 555.499 209.491 553.087 210.97 548.91C212.469 544.678 210.539 540.002 206.345 538.292C197.59 534.722 190.985 544.481 187.498 551.007C183.346 558.778 182.486 568.339 189.378 574.858C195.385 580.539 204.564 584.745 212.972 583.546C217.087 582.96 221.394 580.888 223.709 577.32C226.298 573.328 225.606 567.894 221.607 565.144C214.09 559.977 204.656 567.767 200.414 573.752C195.092 581.259 193.881 591.535 198.228 599.766C202.4 607.666 210.804 612.242 219.715 611.497C221.819 611.322 223.254 608.947 222.925 606.999C222.55 604.774 220.537 603.636 218.426 603.812C208.36 604.653 201.975 594.382 203.68 585.314C204.606 580.389 207.802 576.164 211.778 573.23C213.382 572.046 215.167 571.015 217.147 571.561C217.523 571.664 217.543 572.245 217.409 571.659C217.502 572.068 217.495 572.306 217.368 572.683C217.078 573.548 216.19 574.178 215.444 574.626C210.857 577.379 204.934 575.565 200.602 573.243C196.021 570.788 191.564 567.545 192.009 561.809C192.409 556.65 195.823 551.407 199.146 547.577C199.83 546.789 200.713 545.9 201.729 545.558C202.144 545.419 203.319 545.186 203.661 545.642C204.276 546.46 202.5 547.681 201.905 547.942C197.22 549.992 190.445 547.727 187.289 544.003C183.845 539.939 183.99 534.054 188.526 530.9C190.261 529.693 190.246 526.894 188.977 525.404C187.503 523.674 185.208 523.762 183.468 524.972Z" fill="#01010C"/>
<path d="M293.67 119.48C291 108.882 298.283 98.4472 308.348 95.3849C318.611 92.2626 329.99 96.3254 336.897 104.352C340.455 108.487 342.259 114.12 340.178 119.365C338.07 124.68 332.293 127.567 326.829 125.72C315.42 121.864 317.255 106.988 319.377 97.8142C321.903 86.8904 329.095 76.9864 341.186 76.4578C351.723 75.9972 364.072 79.5955 371.148 87.745C374.612 91.7337 377.014 97.3088 376.246 102.665C375.387 108.656 370.165 113.303 364.015 112.616C352.458 111.326 349.923 95.9875 350.864 86.7059C352.045 75.0622 359.499 64.1788 370.579 59.8865C381.214 55.7669 393.129 58.3636 401.069 66.4958C402.944 68.4158 402.332 71.8918 400.383 73.4902C398.155 75.3169 395.267 74.7349 393.385 72.808C384.416 63.6223 369.666 68.179 363.7 78.3133C360.46 83.8171 359.989 90.5363 361.349 96.6653C361.898 99.1388 362.75 101.615 365.11 102.739C365.558 102.952 366.064 102.41 365.444 102.861C365.877 102.546 366.069 102.311 366.264 101.843C366.71 100.772 366.385 99.426 366.043 98.3746C363.944 91.9112 356.73 88.725 350.619 87.3507C344.158 85.8977 337.154 85.3042 332.771 91.1879C328.829 96.479 327.713 104.358 327.696 110.806C327.692 112.131 327.795 113.721 328.486 114.895C328.767 115.374 329.701 116.575 330.412 116.422C331.69 116.147 331.007 113.496 330.653 112.751C327.87 106.882 319.459 103.419 313.302 104.371C306.584 105.411 301.788 111.187 303.503 117.993C304.158 120.597 301.797 123.274 299.327 123.65C296.46 124.086 294.328 122.091 293.67 119.48Z" fill="#01010C"/>
</svg>
