<svg width="100" height="22" viewBox="0 0 100 22" fill="none" xmlns="http://www.w3.org/2000/svg">
<rect x="94.1602" width="5.28" height="5.28" fill="#AE7AFF"/>
<rect x="90.6401" y="3.52002" width="5.28001" height="5.28" fill="#E99898"/>
<g opacity="0.377858" filter="url(#filter0_b_0_1555)">
<rect x="94.1602" y="3.52002" width="1.76" height="1.76" fill="white"/>
</g>
<path fill-rule="evenodd" clip-rule="evenodd" d="M8.56074 13.5805C9.34922 13.7213 10.018 14.1366 10.5671 14.8265C11.1163 15.5165 11.3908 16.2979 11.3908 17.1709C11.3908 17.9171 11.1972 18.5894 10.81 19.1878C10.4228 19.7862 9.86314 20.2579 9.13098 20.6029C8.39882 20.9478 7.54698 21.1203 6.57546 21.1203H0.704102V6.44189H6.3009C7.30058 6.44189 8.15946 6.61085 8.87754 6.94877C9.59562 7.28669 10.1377 7.74077 10.5038 8.31101C10.8699 8.88125 11.0529 9.51837 11.0529 10.2224C11.0529 11.0672 10.8276 11.7712 10.3771 12.3344C9.9265 12.8976 9.32106 13.3129 8.56074 13.5805ZM3.11178 12.6089H6.0897C6.87818 12.6089 7.49418 12.4294 7.9377 12.0704C8.38122 11.7113 8.60298 11.1939 8.60298 10.5181C8.60298 9.8563 8.38122 9.33885 7.9377 8.96573C7.49418 8.59262 6.87818 8.40605 6.0897 8.40605H3.11178V12.6089ZM8.28618 18.5648C7.82154 18.959 7.1809 19.1561 6.36426 19.1561H3.11178V14.5731H6.27978C7.09642 14.5731 7.75114 14.7843 8.24394 15.2067C8.73674 15.6291 8.98314 16.1993 8.98314 16.9174C8.98314 17.6214 8.75082 18.1705 8.28618 18.5648Z" fill="black"/>
<path d="M10.5671 14.8265L10.1759 15.1379L10.5671 14.8265ZM8.56074 13.5805L8.39479 13.1088C8.18056 13.1842 8.04404 13.3945 8.06237 13.6208C8.08071 13.8472 8.24928 14.0327 8.47285 14.0727L8.56074 13.5805ZM10.81 19.1878L10.3902 18.9162V18.9162L10.81 19.1878ZM9.13098 20.6029L9.34409 21.0552H9.34409L9.13098 20.6029ZM0.704102 21.1203H0.204102C0.204102 21.3964 0.427959 21.6203 0.704102 21.6203L0.704102 21.1203ZM0.704102 6.44189V5.94189C0.427959 5.94189 0.204102 6.16575 0.204102 6.44189H0.704102ZM8.87754 6.94877L8.66464 7.40118L8.87754 6.94877ZM10.3771 12.3344L9.98663 12.022H9.98663L10.3771 12.3344ZM3.11178 12.6089H2.61178C2.61178 12.8851 2.83564 13.1089 3.11178 13.1089V12.6089ZM7.9377 12.0704L7.6231 11.6818L7.6231 11.6818L7.9377 12.0704ZM7.9377 8.96573L7.61582 9.34835L7.61582 9.34835L7.9377 8.96573ZM3.11178 8.40605V7.90605C2.83564 7.90605 2.61178 8.12991 2.61178 8.40605H3.11178ZM8.28618 18.5648L8.60967 18.946H8.60967L8.28618 18.5648ZM3.11178 19.1561H2.61178C2.61178 19.4323 2.83564 19.6561 3.11178 19.6561V19.1561ZM3.11178 14.5731V14.0731C2.83564 14.0731 2.61178 14.297 2.61178 14.5731H3.11178ZM8.24394 15.2067L7.91855 15.5863L7.91855 15.5863L8.24394 15.2067ZM10.9584 14.5152C10.3417 13.7404 9.56926 13.2526 8.64864 13.0882L8.47285 14.0727C9.12918 14.1899 9.69432 14.5328 10.1759 15.1379L10.9584 14.5152ZM11.8908 17.1709C11.8908 16.1836 11.5771 15.2926 10.9584 14.5152L10.1759 15.1379C10.6554 15.7403 10.8908 16.4122 10.8908 17.1709H11.8908ZM11.2298 19.4594C11.6719 18.7762 11.8908 18.0087 11.8908 17.1709H10.8908C10.8908 17.8255 10.7225 18.4026 10.3902 18.9162L11.2298 19.4594ZM9.34409 21.0552C10.1489 20.676 10.7853 20.1464 11.2298 19.4594L10.3902 18.9162C10.0603 19.426 9.57736 19.8398 8.91787 20.1505L9.34409 21.0552ZM6.57546 21.6203C7.60611 21.6203 8.53326 21.4372 9.34409 21.0552L8.91787 20.1505C8.26439 20.4584 7.48785 20.6203 6.57546 20.6203V21.6203ZM0.704102 21.6203H6.57546V20.6203H0.704102V21.6203ZM0.204102 6.44189V21.1203H1.2041V6.44189H0.204102ZM6.3009 5.94189H0.704102V6.94189H6.3009V5.94189ZM9.09044 6.49637C8.2908 6.12006 7.35564 5.94189 6.3009 5.94189V6.94189C7.24553 6.94189 8.02812 7.10164 8.66464 7.40118L9.09044 6.49637ZM10.9245 8.0409C10.4995 7.37885 9.87877 6.86734 9.09044 6.49637L8.66464 7.40118C9.31247 7.70604 9.77588 8.1027 10.083 8.58113L10.9245 8.0409ZM11.5529 10.2224C11.5529 9.42653 11.3444 8.69497 10.9245 8.0409L10.083 8.58113C10.3953 9.06754 10.5529 9.61022 10.5529 10.2224H11.5529ZM10.7675 12.6467C11.3007 11.9802 11.5529 11.1604 11.5529 10.2224H10.5529C10.5529 10.974 10.3545 11.5621 9.98663 12.022L10.7675 12.6467ZM8.7267 14.0521C9.56459 13.7573 10.2518 13.2913 10.7675 12.6467L9.98663 12.022C9.60121 12.5038 9.07753 12.8686 8.39479 13.1088L8.7267 14.0521ZM6.0897 12.1089H3.11178V13.1089H6.0897V12.1089ZM7.6231 11.6818C7.29725 11.9455 6.80693 12.1089 6.0897 12.1089V13.1089C6.94943 13.1089 7.69112 12.9133 8.2523 12.459L7.6231 11.6818ZM8.10298 10.5181C8.10298 11.074 7.92723 11.4356 7.6231 11.6818L8.2523 12.459C8.83522 11.9871 9.10298 11.3138 9.10298 10.5181H8.10298ZM7.61582 9.34835C7.92966 9.61237 8.10298 9.98047 8.10298 10.5181H9.10298C9.10298 9.73212 8.83279 9.06534 8.25958 8.58312L7.61582 9.34835ZM6.0897 8.90605C6.80287 8.90605 7.29031 9.0745 7.61582 9.34835L8.25958 8.58312C7.69805 8.11073 6.95349 7.90605 6.0897 7.90605V8.90605ZM3.11178 8.90605H6.0897V7.90605H3.11178V8.90605ZM3.61178 12.6089V8.40605H2.61178V12.6089H3.61178ZM6.36426 19.6561C7.25881 19.6561 8.02792 19.4396 8.60967 18.946L7.96269 18.1835C7.61516 18.4784 7.103 18.6561 6.36426 18.6561V19.6561ZM3.11178 19.6561H6.36426V18.6561H3.11178V19.6561ZM2.61178 14.5731V19.1561H3.61178V14.5731H2.61178ZM6.27978 14.0731H3.11178V15.0731H6.27978V14.0731ZM8.56934 14.8271C7.96441 14.3086 7.18402 14.0731 6.27978 14.0731V15.0731C7.00882 15.0731 7.53787 15.26 7.91855 15.5863L8.56934 14.8271ZM9.48314 16.9174C9.48314 16.0708 9.18557 15.3553 8.56934 14.8271L7.91855 15.5863C8.28792 15.9029 8.48314 16.3278 8.48314 16.9174H9.48314ZM8.60967 18.946C9.20428 18.4415 9.48314 17.7429 9.48314 16.9174H8.48314C8.48314 17.5 8.29736 17.8996 7.96269 18.1835L8.60967 18.946Z" fill="black"/>
<path d="M17.2597 11.1712C17.6117 10.5799 18.0799 10.1188 18.6642 9.78789C19.2485 9.457 19.942 9.29156 20.7445 9.29156V11.7837H20.1321C19.1887 11.7837 18.4741 12.0231 17.9884 12.5018C17.5026 12.9805 17.2597 13.8112 17.2597 14.994V21.1188H14.8521V9.48164H17.2597V11.1712Z" fill="black" stroke="black" stroke-linejoin="round"/>
<path d="M34.3432 9.48407V21.1212H31.9355V19.7484C31.5554 20.2271 31.0591 20.6037 30.4466 20.8783C29.8341 21.1529 29.1829 21.2901 28.493 21.2901C27.5778 21.2901 26.7576 21.1001 26.0325 20.7199C25.3074 20.3397 24.7371 19.7765 24.3218 19.0303C23.9064 18.2841 23.6987 17.3829 23.6987 16.3269V9.48407H26.0853V15.9679C26.0853 17.0098 26.3458 17.8089 26.8667 18.365C27.3877 18.9212 28.0987 19.1993 28.9999 19.1993C29.901 19.1993 30.6155 18.9212 31.1435 18.365C31.6715 17.8089 31.9355 17.0098 31.9355 15.9679V9.48407H34.3432Z" fill="black" stroke="black" stroke-linejoin="round"/>
<path fill-rule="evenodd" clip-rule="evenodd" d="M38.2794 12.1425C37.7937 13.0436 37.5508 14.0785 37.5508 15.2471C37.5508 16.4158 37.7937 17.4612 38.2794 18.3834C38.7652 19.3057 39.4269 20.0238 40.2647 20.5377C41.1025 21.0516 42.0282 21.3086 43.042 21.3086C43.9431 21.3086 44.7421 21.1255 45.4391 20.7594C46.1361 20.3934 46.6817 19.9287 47.0759 19.3655V21.1185H49.5047V5.48969H47.0759V11.1076C46.6394 10.5585 46.0516 10.1185 45.3124 9.7876C44.5732 9.45673 43.8234 9.29129 43.0631 9.29129C42.0353 9.29129 41.1025 9.5412 40.2647 10.041C39.4269 10.5409 38.7652 11.2414 38.2794 12.1425ZM46.5796 13.1985C46.9105 13.7898 47.0759 14.4868 47.0759 15.2894C47.0759 16.0919 46.9105 16.7924 46.5796 17.3908C46.2487 17.9892 45.8157 18.4433 45.2807 18.753C44.7457 19.0628 44.1684 19.2177 43.5489 19.2177C42.9434 19.2177 42.3697 19.0593 41.8276 18.7425C41.2855 18.4257 40.849 17.9646 40.5181 17.3591C40.1873 16.7537 40.0218 16.0497 40.0218 15.2471C40.0218 14.4446 40.1873 13.7511 40.5181 13.1668C40.849 12.5825 41.282 12.139 41.817 11.8362C42.3521 11.5335 42.9293 11.3822 43.5489 11.3822C44.1684 11.3822 44.7457 11.537 45.2807 11.8468C45.8157 12.1566 46.2487 12.6071 46.5796 13.1985Z" fill="black"/>
<path d="M38.2794 12.1425L38.7195 12.3797V12.3797L38.2794 12.1425ZM38.2794 18.3834L37.837 18.6165L38.2794 18.3834ZM45.4391 20.7594L45.6716 21.2021L45.6716 21.2021L45.4391 20.7594ZM47.0759 19.3655H47.5759C47.5759 19.1473 47.4344 18.9543 47.2262 18.8887C47.0181 18.823 46.7914 18.9 46.6663 19.0788L47.0759 19.3655ZM47.0759 21.1185H46.5759C46.5759 21.3946 46.7998 21.6185 47.0759 21.6185V21.1185ZM49.5047 21.1185V21.6185C49.7808 21.6185 50.0047 21.3946 50.0047 21.1185H49.5047ZM49.5047 5.48969H50.0047C50.0047 5.21354 49.7808 4.98969 49.5047 4.98969V5.48969ZM47.0759 5.48969V4.98969C46.7998 4.98969 46.5759 5.21354 46.5759 5.48969H47.0759ZM47.0759 11.1076L46.6845 11.4187C46.8168 11.5852 47.0399 11.6497 47.2407 11.5797C47.4414 11.5096 47.5759 11.3202 47.5759 11.1076H47.0759ZM45.3124 9.7876L45.5167 9.33124H45.5167L45.3124 9.7876ZM40.2647 10.041L40.5209 10.4704H40.5209L40.2647 10.041ZM45.2807 18.753L45.5312 19.1858L45.2807 18.753ZM41.8276 18.7425L41.5753 19.1742L41.8276 18.7425ZM40.5181 17.3591L40.0794 17.5989L40.5181 17.3591ZM40.5181 13.1668L40.0831 12.9204L40.5181 13.1668ZM41.817 11.8362L42.0632 12.2714L41.817 11.8362ZM45.2807 11.8468L45.5312 11.4141L45.2807 11.8468ZM38.0508 15.2471C38.0508 14.1495 38.2783 13.1982 38.7195 12.3797L37.8393 11.9052C37.309 12.889 37.0508 14.0075 37.0508 15.2471H38.0508ZM38.7218 18.1504C38.2783 17.3084 38.0508 16.3445 38.0508 15.2471H37.0508C37.0508 16.487 37.309 17.614 37.837 18.6165L38.7218 18.1504ZM40.5261 20.1115C39.7696 19.6474 39.1683 18.9982 38.7218 18.1504L37.837 18.6165C38.362 19.6132 39.0842 20.4001 40.0033 20.9639L40.5261 20.1115ZM43.042 20.8086C42.1175 20.8086 41.2827 20.5756 40.5261 20.1115L40.0033 20.9639C40.9222 21.5276 41.939 21.8086 43.042 21.8086V20.8086ZM45.2066 20.3168C44.5911 20.6401 43.8739 20.8086 43.042 20.8086V21.8086C44.0123 21.8086 44.8932 21.611 45.6716 21.2021L45.2066 20.3168ZM46.6663 19.0788C46.324 19.5677 45.8432 19.9824 45.2066 20.3168L45.6716 21.2021C46.4289 20.8043 47.0393 20.2897 47.4855 19.6523L46.6663 19.0788ZM47.5759 21.1185V19.3655H46.5759V21.1185H47.5759ZM49.5047 20.6185H47.0759V21.6185H49.5047V20.6185ZM49.0047 5.48969V21.1185H50.0047V5.48969H49.0047ZM47.0759 5.98969H49.5047V4.98969H47.0759V5.98969ZM47.5759 11.1076V5.48969H46.5759V11.1076H47.5759ZM45.1081 10.244C45.7855 10.5472 46.3051 10.9414 46.6845 11.4187L47.4673 10.7965C46.9738 10.1756 46.3176 9.68977 45.5167 9.33124L45.1081 10.244ZM43.0631 9.79129C43.7485 9.79129 44.4289 9.93995 45.1081 10.244L45.5167 9.33124C44.7175 8.9735 43.8983 8.79129 43.0631 8.79129V9.79129ZM40.5209 10.4704C41.277 10.0193 42.1204 9.79129 43.0631 9.79129V8.79129C41.9501 8.79129 40.928 9.06309 40.0085 9.61166L40.5209 10.4704ZM38.7195 12.3797C39.1647 11.554 39.7646 10.9217 40.5209 10.4704L40.0085 9.61166C39.0893 10.1601 38.3657 10.9287 37.8393 11.9052L38.7195 12.3797ZM47.5759 15.2894C47.5759 14.4171 47.3956 13.633 47.0159 12.9543L46.1432 13.4426C46.4253 13.9467 46.5759 14.5565 46.5759 15.2894H47.5759ZM47.0171 17.6328C47.3956 16.9484 47.5759 16.1618 47.5759 15.2894H46.5759C46.5759 16.0221 46.4253 16.6364 46.142 17.1489L47.0171 17.6328ZM45.5312 19.1858C46.1529 18.8258 46.6472 18.3019 47.0171 17.6328L46.142 17.1489C45.8502 17.6765 45.4786 18.0607 45.0302 18.3203L45.5312 19.1858ZM43.5489 19.7177C44.2562 19.7177 44.9199 19.5397 45.5312 19.1858L45.0302 18.3203C44.5714 18.5859 44.0806 18.7177 43.5489 18.7177V19.7177ZM41.5753 19.1742C42.191 19.534 42.8514 19.7177 43.5489 19.7177V18.7177C43.0355 18.7177 42.5484 18.5846 42.0799 18.3108L41.5753 19.1742ZM40.0794 17.5989C40.4494 18.2759 40.9471 18.8071 41.5753 19.1742L42.0799 18.3108C41.6239 18.0443 41.2486 17.6532 40.9569 17.1193L40.0794 17.5989ZM39.5218 15.2471C39.5218 16.1197 39.7022 16.9087 40.0794 17.5989L40.9569 17.1193C40.6723 16.5986 40.5218 15.9796 40.5218 15.2471H39.5218ZM40.0831 12.9204C39.702 13.5933 39.5218 14.3751 39.5218 15.2471H40.5218C40.5218 14.5141 40.6725 13.9089 40.9532 13.4132L40.0831 12.9204ZM41.5708 11.4011C40.9497 11.7525 40.4543 12.2647 40.0831 12.9204L40.9532 13.4132C41.2437 12.9002 41.6143 12.5254 42.0632 12.2714L41.5708 11.4011ZM43.5489 10.8822C42.8438 10.8822 42.1816 11.0555 41.5708 11.4011L42.0632 12.2714C42.5226 12.0115 43.0149 11.8822 43.5489 11.8822V10.8822ZM45.5312 11.4141C44.9199 11.0602 44.2562 10.8822 43.5489 10.8822V11.8822C44.0806 11.8822 44.5714 12.0139 45.0302 12.2795L45.5312 11.4141ZM47.0159 12.9543C46.6455 12.2923 46.1514 11.7731 45.5312 11.4141L45.0302 12.2795C45.4801 12.54 45.8519 12.9219 46.1432 13.4426L47.0159 12.9543Z" fill="black"/>
<path fill-rule="evenodd" clip-rule="evenodd" d="M53.441 12.1425C52.9553 13.0436 52.7124 14.0785 52.7124 15.2471C52.7124 16.4158 52.9553 17.4612 53.441 18.3834C53.9268 19.3057 54.5886 20.0238 55.4263 20.5377C56.2641 21.0516 57.1898 21.3086 58.2036 21.3086C59.1047 21.3086 59.9038 21.1255 60.6007 20.7594C61.2977 20.3934 61.8433 19.9287 62.2375 19.3655V21.1185H64.6663V5.48969H62.2375V11.1076C61.801 10.5585 61.2132 10.1185 60.474 9.7876C59.7348 9.45673 58.985 9.29129 58.2247 9.29129C57.1969 9.29129 56.2641 9.5412 55.4263 10.041C54.5886 10.5409 53.9268 11.2414 53.441 12.1425ZM61.7412 13.1985C62.0721 13.7898 62.2375 14.4868 62.2375 15.2894C62.2375 16.0919 62.0721 16.7924 61.7412 17.3908C61.4103 17.9892 60.9774 18.4433 60.4423 18.753C59.9073 19.0628 59.33 19.2177 58.7105 19.2177C58.105 19.2177 57.5313 19.0593 56.9892 18.7425C56.4471 18.4257 56.0106 17.9646 55.6798 17.3591C55.3489 16.7537 55.1834 16.0497 55.1834 15.2471C55.1834 14.4446 55.3489 13.7511 55.6798 13.1668C56.0106 12.5825 56.4436 12.139 56.9786 11.8362C57.5137 11.5335 58.091 11.3822 58.7105 11.3822C59.33 11.3822 59.9073 11.537 60.4423 11.8468C60.9774 12.1566 61.4103 12.6071 61.7412 13.1985Z" fill="black"/>
<path d="M53.441 18.3834L52.9987 18.6165H52.9987L53.441 18.3834ZM55.4263 20.5377L55.1649 20.9639L55.4263 20.5377ZM60.6007 20.7594L60.8332 21.2021L60.8332 21.2021L60.6007 20.7594ZM62.2375 19.3655H62.7375C62.7375 19.1473 62.596 18.9543 62.3878 18.8887C62.1797 18.823 61.9531 18.9 61.8279 19.0788L62.2375 19.3655ZM62.2375 21.1185H61.7375C61.7375 21.3946 61.9614 21.6185 62.2375 21.6185V21.1185ZM64.6663 21.1185V21.6185C64.9425 21.6185 65.1663 21.3946 65.1663 21.1185H64.6663ZM64.6663 5.48969H65.1663C65.1663 5.21354 64.9425 4.98969 64.6663 4.98969V5.48969ZM62.2375 5.48969V4.98969C61.9614 4.98969 61.7375 5.21354 61.7375 5.48969H62.2375ZM62.2375 11.1076L61.8461 11.4187C61.9784 11.5852 62.2015 11.6497 62.4023 11.5797C62.603 11.5096 62.7375 11.3202 62.7375 11.1076H62.2375ZM60.474 9.7876L60.6783 9.33124L60.474 9.7876ZM55.4263 10.041L55.6825 10.4704H55.6825L55.4263 10.041ZM61.7412 13.1985L61.3049 13.4426L61.7412 13.1985ZM61.7412 17.3908L61.3036 17.1489L61.7412 17.3908ZM60.4423 18.753L60.6928 19.1858L60.4423 18.753ZM56.9892 18.7425L56.7369 19.1742L56.9892 18.7425ZM55.6798 17.3591L55.241 17.5989L55.241 17.5989L55.6798 17.3591ZM55.6798 13.1668L55.2447 12.9204L55.2447 12.9204L55.6798 13.1668ZM56.9786 11.8362L56.7324 11.4011L56.9786 11.8362ZM60.4423 11.8468L60.6928 11.4141L60.4423 11.8468ZM53.2124 15.2471C53.2124 14.1495 53.44 13.1982 53.8812 12.3797L53.0009 11.9052C52.4706 12.889 52.2124 14.0075 52.2124 15.2471H53.2124ZM53.8834 18.1504C53.4399 17.3084 53.2124 16.3445 53.2124 15.2471H52.2124C52.2124 16.487 52.4707 17.614 52.9987 18.6165L53.8834 18.1504ZM55.6878 20.1115C54.9313 19.6474 54.33 18.9982 53.8834 18.1504L52.9987 18.6165C53.5236 19.6132 54.2459 20.4001 55.1649 20.9639L55.6878 20.1115ZM58.2036 20.8086C57.2791 20.8086 56.4443 20.5756 55.6878 20.1115L55.1649 20.9639C56.0839 21.5276 57.1006 21.8086 58.2036 21.8086V20.8086ZM60.3682 20.3168C59.7527 20.6401 59.0355 20.8086 58.2036 20.8086V21.8086C59.1739 21.8086 60.0548 21.611 60.8332 21.2021L60.3682 20.3168ZM61.8279 19.0788C61.4857 19.5677 61.0049 19.9824 60.3682 20.3168L60.8332 21.2021C61.5905 20.8043 62.2009 20.2897 62.6471 19.6523L61.8279 19.0788ZM62.7375 21.1185V19.3655H61.7375V21.1185H62.7375ZM64.6663 20.6185H62.2375V21.6185H64.6663V20.6185ZM64.1663 5.48969V21.1185H65.1663V5.48969H64.1663ZM62.2375 5.98969H64.6663V4.98969H62.2375V5.98969ZM62.7375 11.1076V5.48969H61.7375V11.1076H62.7375ZM60.2697 10.244C60.9472 10.5472 61.4667 10.9414 61.8461 11.4187L62.6289 10.7965C62.1354 10.1756 61.4792 9.68977 60.6783 9.33124L60.2697 10.244ZM58.2247 9.79129C58.9101 9.79129 59.5905 9.93995 60.2697 10.244L60.6783 9.33124C59.8791 8.9735 59.06 8.79129 58.2247 8.79129V9.79129ZM55.6825 10.4704C56.4386 10.0193 57.282 9.79129 58.2247 9.79129V8.79129C57.1117 8.79129 56.0896 9.06309 55.1701 9.61166L55.6825 10.4704ZM53.8812 12.3797C54.3263 11.554 54.9262 10.9217 55.6825 10.4704L55.1701 9.61166C54.2509 10.1601 53.5273 10.9287 53.0009 11.9052L53.8812 12.3797ZM62.7375 15.2894C62.7375 14.4171 62.5573 13.633 62.1775 12.9543L61.3049 13.4426C61.5869 13.9467 61.7375 14.5565 61.7375 15.2894H62.7375ZM62.1788 17.6328C62.5572 16.9484 62.7375 16.1618 62.7375 15.2894H61.7375C61.7375 16.0221 61.587 16.6364 61.3036 17.1489L62.1788 17.6328ZM60.6928 19.1858C61.3145 18.8258 61.8088 18.3019 62.1788 17.6328L61.3036 17.1489C61.0119 17.6765 60.6402 18.0607 60.1918 18.3203L60.6928 19.1858ZM58.7105 19.7177C59.4178 19.7177 60.0815 19.5397 60.6928 19.1858L60.1918 18.3203C59.7331 18.5859 59.2422 18.7177 58.7105 18.7177V19.7177ZM56.7369 19.1742C57.3526 19.534 58.013 19.7177 58.7105 19.7177V18.7177C58.1971 18.7177 57.71 18.5846 57.2415 18.3108L56.7369 19.1742ZM55.241 17.5989C55.611 18.2759 56.1088 18.8071 56.7369 19.1742L57.2415 18.3108C56.7855 18.0443 56.4103 17.6532 56.1185 17.1193L55.241 17.5989ZM54.6834 15.2471C54.6834 16.1197 54.8638 16.9087 55.241 17.5989L56.1185 17.1193C55.8339 16.5986 55.6834 15.9796 55.6834 15.2471H54.6834ZM55.2447 12.9204C54.8636 13.5933 54.6834 14.3751 54.6834 15.2471H55.6834C55.6834 14.5141 55.8341 13.9089 56.1149 13.4132L55.2447 12.9204ZM56.7324 11.4011C56.1113 11.7525 55.616 12.2647 55.2447 12.9204L56.1149 13.4132C56.4053 12.9002 56.7759 12.5254 57.2249 12.2714L56.7324 11.4011ZM58.7105 10.8822C58.0054 10.8822 57.3432 11.0555 56.7324 11.4011L57.2249 12.2714C57.6842 12.0115 58.1766 11.8822 58.7105 11.8822V10.8822ZM60.6928 11.4141C60.0815 11.0602 59.4178 10.8822 58.7105 10.8822V11.8822C59.2422 11.8822 59.7331 12.0139 60.1918 12.2795L60.6928 11.4141ZM62.1775 12.9543C61.8071 12.2923 61.313 11.7731 60.6928 11.4141L60.1918 12.2795C60.6417 12.54 61.0135 12.9219 61.3049 13.4426L62.1775 12.9543Z" fill="black"/>
<path d="M71.0844 5.48969V21.1185H68.6768V5.48969H71.0844Z" fill="black" stroke="black" stroke-linejoin="round"/>
<path fill-rule="evenodd" clip-rule="evenodd" d="M85.6757 16.1978C85.732 15.8458 85.7601 15.4516 85.7601 15.0151C85.7601 13.8887 85.5208 12.8925 85.0421 12.0266C84.5633 11.1607 83.8945 10.4884 83.0357 10.0096C82.1768 9.53092 81.1982 9.29156 80.1 9.29156C78.9595 9.29156 77.9493 9.53796 77.0693 10.0308C76.1893 10.5236 75.5064 11.224 75.0206 12.1322C74.5349 13.0404 74.292 14.0928 74.292 15.2896C74.292 16.4864 74.5419 17.5389 75.0418 18.4471C75.5416 19.3552 76.2315 20.0592 77.1115 20.5591C77.9915 21.0589 78.9877 21.3088 80.1 21.3088C81.4657 21.3088 82.6097 20.9674 83.532 20.2845C84.4542 19.6016 85.0913 18.7252 85.4433 17.6551H82.8456C82.3105 18.7392 81.3953 19.2813 80.1 19.2813C79.1989 19.2813 78.4386 18.9997 77.819 18.4365C77.1995 17.8733 76.8546 17.1271 76.7842 16.1978H85.6757ZM82.2965 12.1216C82.916 12.6567 83.2328 13.3677 83.2469 14.2548H76.8053C76.9179 13.3536 77.2699 12.6391 77.8613 12.1111C78.4526 11.5831 79.1637 11.3191 79.9944 11.3191C80.9096 11.3191 81.677 11.5866 82.2965 12.1216Z" fill="black"/>
<path d="M85.6757 16.1978V16.6978C85.9213 16.6978 86.1306 16.5194 86.1694 16.2768L85.6757 16.1978ZM85.0421 12.0266L85.4796 11.7847L85.0421 12.0266ZM83.0357 10.0096L82.7922 10.4464V10.4464L83.0357 10.0096ZM77.0693 10.0308L77.3136 10.467L77.3136 10.467L77.0693 10.0308ZM75.0206 12.1322L74.5797 11.8964H74.5797L75.0206 12.1322ZM77.1115 20.5591L77.3585 20.1243L77.1115 20.5591ZM83.532 20.2845L83.8295 20.6864L83.532 20.2845ZM85.4433 17.6551L85.9183 17.8113C85.9684 17.659 85.9424 17.4918 85.8484 17.3619C85.7544 17.232 85.6037 17.1551 85.4433 17.1551V17.6551ZM82.8456 17.6551V17.1551C82.6553 17.1551 82.4814 17.2631 82.3972 17.4338L82.8456 17.6551ZM76.7842 16.1978V15.6978C76.645 15.6978 76.5121 15.7558 76.4175 15.8579C76.3229 15.9599 76.2751 16.0968 76.2856 16.2356L76.7842 16.1978ZM83.2469 14.2548V14.7548C83.3809 14.7548 83.5092 14.701 83.6032 14.6055C83.6972 14.51 83.7489 14.3808 83.7468 14.2468L83.2469 14.2548ZM82.2965 12.1216L81.9697 12.5001H81.9697L82.2965 12.1216ZM76.8053 14.2548L76.3091 14.1927C76.2913 14.3351 76.3355 14.4782 76.4304 14.5857C76.5253 14.6932 76.6619 14.7548 76.8053 14.7548V14.2548ZM77.8613 12.1111L78.1943 12.4841H78.1943L77.8613 12.1111ZM85.2601 15.0151C85.2601 15.4307 85.2333 15.798 85.1819 16.1188L86.1694 16.2768C86.2307 15.8936 86.2601 15.4724 86.2601 15.0151H85.2601ZM84.6045 12.2685C85.0369 13.0506 85.2601 13.9614 85.2601 15.0151H86.2601C86.2601 13.8159 86.0047 12.7344 85.4796 11.7847L84.6045 12.2685ZM82.7922 10.4464C83.5689 10.8793 84.1707 11.4839 84.6045 12.2685L85.4796 11.7847C84.956 10.8375 84.2202 10.0974 83.2791 9.5729L82.7922 10.4464ZM80.1 9.79156C81.1232 9.79156 82.0162 10.0138 82.7922 10.4464L83.2791 9.5729C82.3374 9.04802 81.2733 8.79156 80.1 8.79156V9.79156ZM77.3136 10.467C78.1096 10.0212 79.0337 9.79156 80.1 9.79156V8.79156C78.8853 8.79156 77.7889 9.05469 76.825 9.59451L77.3136 10.467ZM75.4615 12.368C75.9032 11.5422 76.5187 10.9121 77.3136 10.467L76.825 9.59451C75.8598 10.135 75.1095 10.9059 74.5797 11.8964L75.4615 12.368ZM74.792 15.2896C74.792 14.1617 75.0204 13.1927 75.4615 12.368L74.5797 11.8964C74.0493 12.888 73.792 14.024 73.792 15.2896H74.792ZM75.4798 18.206C75.0265 17.3824 74.792 16.4153 74.792 15.2896H73.792C73.792 16.5576 74.0573 17.6954 74.6037 18.6882L75.4798 18.206ZM77.3585 20.1243C76.5609 19.6713 75.9362 19.0352 75.4798 18.206L74.6037 18.6882C75.147 19.6752 75.9022 20.4472 76.8646 20.9938L77.3585 20.1243ZM80.1 20.8088C79.0654 20.8088 78.1559 20.5773 77.3585 20.1243L76.8646 20.9938C77.8271 21.5406 78.9099 21.8088 80.1 21.8088V20.8088ZM83.2344 19.8827C82.4138 20.4904 81.3796 20.8088 80.1 20.8088V21.8088C81.5519 21.8088 82.8057 21.4444 83.8295 20.6864L83.2344 19.8827ZM84.9684 17.4988C84.6493 18.4687 84.0752 19.2601 83.2344 19.8827L83.8295 20.6864C84.8332 19.9432 85.5334 18.9816 85.9183 17.8113L84.9684 17.4988ZM82.8456 18.1551H85.4433V17.1551H82.8456V18.1551ZM80.1 19.7813C80.8178 19.7813 81.4628 19.6307 82.0127 19.305C82.5647 18.978 82.9896 18.4931 83.294 17.8764L82.3972 17.4338C82.1666 17.9012 81.8663 18.2294 81.5031 18.4446C81.1378 18.6609 80.6775 18.7813 80.1 18.7813V19.7813ZM77.4827 18.8065C78.2016 19.4601 79.0848 19.7813 80.1 19.7813V18.7813C79.3129 18.7813 78.6755 18.5394 78.1554 18.0666L77.4827 18.8065ZM76.2856 16.2356C76.3644 17.2766 76.7576 18.1474 77.4827 18.8065L78.1554 18.0666C77.6414 17.5993 77.3447 16.9776 77.2827 16.16L76.2856 16.2356ZM85.6757 15.6978H76.7842V16.6978H85.6757V15.6978ZM83.7468 14.2468C83.7307 13.2307 83.3604 12.3799 82.6233 11.7432L81.9697 12.5001C82.4715 12.9335 82.7349 13.5048 82.7469 14.2627L83.7468 14.2468ZM76.8053 14.7548H83.2469V13.7548H76.8053V14.7548ZM77.5283 11.7381C76.8337 12.3583 76.4344 13.1902 76.3091 14.1927L77.3014 14.3168C77.4014 13.5171 77.7061 12.9199 78.1943 12.4841L77.5283 11.7381ZM79.9944 10.8191C79.0473 10.8191 78.2159 11.1241 77.5283 11.7381L78.1943 12.4841C78.6893 12.0421 79.2801 11.8191 79.9944 11.8191V10.8191ZM82.6233 11.7432C81.9021 11.1204 81.0144 10.8191 79.9944 10.8191V11.8191C80.8047 11.8191 81.4518 12.0528 81.9697 12.5001L82.6233 11.7432Z" fill="black"/>
<defs>
<filter id="filter0_b_0_1555" x="83.287" y="-7.35311" width="23.506" height="23.5063" filterUnits="userSpaceOnUse" color-interpolation-filters="sRGB">
<feFlood flood-opacity="0" result="BackgroundImageFix"/>
<feGaussianBlur in="BackgroundImageFix" stdDeviation="5.43656"/>
<feComposite in2="SourceAlpha" operator="in" result="effect1_backgroundBlur_0_1555"/>
<feBlend mode="normal" in="SourceGraphic" in2="effect1_backgroundBlur_0_1555" result="shape"/>
</filter>
</defs>
</svg>
